<!--?xml version="1.0" standalone="no"?-->
              <svg id="sw-js-blob-svg" viewBox="0 0 100 100" xmlns="http://www.w3.org/2000/svg" version="1.1">
                    <defs> 
                        <linearGradient id="sw-gradient" x1="0" x2="1" y1="1" y2="0">
                            <stop id="stop1" stop-color="rgba(248, 117, 55, 1)" offset="0%"></stop>
                            <stop id="stop2" stop-color="rgba(208, 232, 242, 1)" offset="100%"></stop>
                        </linearGradient>
                    </defs>
                <path fill="url(#sw-gradient)" d="M21.6,-22.2C27.5,-15.6,31.6,-7.8,31.5,-0.2C31.3,7.5,26.9,15,20.9,21.3C15,27.7,7.5,32.9,-1.1,34C-9.6,35.1,-19.3,32,-22,25.6C-24.8,19.3,-20.6,9.6,-19.9,0.7C-19.3,-8.3,-22,-16.5,-19.3,-23.1C-16.5,-29.7,-8.3,-34.6,-0.2,-34.4C7.8,-34.2,15.6,-28.8,21.6,-22.2Z" width="100%" height="100%" transform="translate(50 50)" stroke-width="0" style="transition: all 0.3s ease 0s;" stroke="url(#sw-gradient)"></path>
                <text x="0" y="15" fill="red">I love SVG!</text>
              </svg>