<?xml version="1.0" encoding="iso-8859-1"?>
<!-- Uploaded to: SVG Repo, www.svgrepo.com, Generator: SVG Repo Mixer Tools -->
<svg height="300px" width="200px" version="1.1" id="Layer_1" xmlns="http://www.w3.org/2000/svg" xmlns:xlink="http://www.w3.org/1999/xlink" 
	 viewBox="0 0 511.922 511.922" xml:space="preserve">
<g transform="translate(-1)">
	<path style="fill:#DBB38D;" d="M332.693,467.44c-17.064,11.573-32.106,26.827-54.219,26.827c-22.104,0-37.155-15.254-54.21-26.827
		c-8.324-5.641-16.772-11.149-24.991-16.949v61.431h158.897v-61.758C349.792,456.096,341.176,461.693,332.693,467.44"/>
	<path style="fill:#FDD7AD;" d="M134.77,283.914c111.598-127.532,223.214-133.923,223.214-133.923
		c31.453,16.004-26.483,61.793-26.483,61.793c50.211,0,79.448-35.31,79.448-35.31s17.841,39.892,17.841,98.101
		c0,55.428-4.326,116.401-46.133,156.089c-14.998,14.239-32.662,25.203-49.726,36.776c-17.055,11.573-32.097,26.827-54.21,26.827
		c-22.113,0-37.155-15.254-54.219-26.827s-34.631-22.634-49.726-36.776c-41.295-38.7-46.045-104.801-46.292-129.73
		C128.423,294.693,130.657,288.611,134.77,283.914"/>
	<path style="fill:#804537;" d="M418.718,63.242c-16.455-21.901-40.271-39.733-64.6-52.189
		c-45.197-23.128-93.82-6.091-132.608,15.695c-32.477,18.238-57.618,46.345-72.201,80.41c-1.818,4.255-5.641,7.318-10.258,7.733
		c-22.343,1.986-143.916,27.374-10.567,186.041c-0.062-6.241,2.172-12.323,6.285-17.02
		c111.598-127.532,223.214-133.923,223.214-133.923c31.453,16.004-26.483,61.793-26.483,61.793c50.211,0,79.448-35.31,79.448-35.31
		s9.613,21.575,14.716,56.09l3.125-3.125c9.19-23.737,15.943-39.848,17.743-65.306C449.085,128.169,440.54,92.276,418.718,63.242"/>
</g>
</svg>